<mxfile host="app.diagrams.net" agent="Mozilla/5.0 (Windows NT 10.0; Win64; x64) AppleWebKit/537.36 (KHTML, like Gecko) Chrome/134.0.0.0 Safari/537.36" version="26.2.2">
  <diagram name="Страница — 1" id="jpWwFt_TThTV1VH1X5GV">
    <mxGraphModel dx="1428" dy="743" grid="1" gridSize="10" guides="1" tooltips="1" connect="1" arrows="1" fold="1" page="1" pageScale="1" pageWidth="827" pageHeight="1169" math="0" shadow="0">
      <root>
        <mxCell id="0" />
        <mxCell id="1" parent="0" />
        <mxCell id="NDiatKdzCydLOwNRCj1A-1" value="" style="rounded=0;whiteSpace=wrap;html=1;" vertex="1" parent="1">
          <mxGeometry x="80" y="450" width="230" height="870" as="geometry" />
        </mxCell>
        <mxCell id="NDiatKdzCydLOwNRCj1A-2" value="" style="rounded=0;whiteSpace=wrap;html=1;" vertex="1" parent="1">
          <mxGeometry x="310" y="450" width="250" height="140" as="geometry" />
        </mxCell>
        <mxCell id="NDiatKdzCydLOwNRCj1A-3" value="" style="rounded=0;whiteSpace=wrap;html=1;" vertex="1" parent="1">
          <mxGeometry x="550" y="450" width="220" height="190" as="geometry" />
        </mxCell>
        <mxCell id="NDiatKdzCydLOwNRCj1A-4" value="" style="rounded=0;whiteSpace=wrap;html=1;" vertex="1" parent="1">
          <mxGeometry x="40" y="40" width="120" height="60" as="geometry" />
        </mxCell>
        <mxCell id="NDiatKdzCydLOwNRCj1A-5" value="" style="rounded=0;whiteSpace=wrap;html=1;" vertex="1" parent="1">
          <mxGeometry x="30" y="130" width="1650" height="250" as="geometry" />
        </mxCell>
        <mxCell id="NDiatKdzCydLOwNRCj1A-7" value="" style="endArrow=none;html=1;rounded=0;" edge="1" parent="1" source="NDiatKdzCydLOwNRCj1A-5" target="NDiatKdzCydLOwNRCj1A-5">
          <mxGeometry width="50" height="50" relative="1" as="geometry">
            <mxPoint x="390" y="310" as="sourcePoint" />
            <mxPoint x="440" y="260" as="targetPoint" />
          </mxGeometry>
        </mxCell>
        <mxCell id="NDiatKdzCydLOwNRCj1A-9" value="" style="rounded=0;whiteSpace=wrap;html=1;" vertex="1" parent="1">
          <mxGeometry x="30" y="280" width="120" height="100" as="geometry" />
        </mxCell>
        <mxCell id="NDiatKdzCydLOwNRCj1A-18" style="edgeStyle=orthogonalEdgeStyle;rounded=0;orthogonalLoop=1;jettySize=auto;html=1;exitX=0.5;exitY=0;exitDx=0;exitDy=0;entryX=0.5;entryY=0;entryDx=0;entryDy=0;" edge="1" parent="1" source="NDiatKdzCydLOwNRCj1A-10">
          <mxGeometry relative="1" as="geometry">
            <mxPoint x="70" y="100" as="targetPoint" />
            <Array as="points">
              <mxPoint x="165" y="140" />
              <mxPoint x="70" y="140" />
            </Array>
          </mxGeometry>
        </mxCell>
        <mxCell id="NDiatKdzCydLOwNRCj1A-38" style="edgeStyle=orthogonalEdgeStyle;rounded=0;orthogonalLoop=1;jettySize=auto;html=1;exitX=0.5;exitY=0;exitDx=0;exitDy=0;" edge="1" parent="1" source="NDiatKdzCydLOwNRCj1A-10" target="NDiatKdzCydLOwNRCj1A-37">
          <mxGeometry relative="1" as="geometry">
            <Array as="points">
              <mxPoint x="165" y="160" />
            </Array>
          </mxGeometry>
        </mxCell>
        <mxCell id="NDiatKdzCydLOwNRCj1A-10" value="роутер" style="shape=hexagon;perimeter=hexagonPerimeter2;whiteSpace=wrap;html=1;fixedSize=1;" vertex="1" parent="1">
          <mxGeometry x="140" y="300" width="50" height="40" as="geometry" />
        </mxCell>
        <mxCell id="NDiatKdzCydLOwNRCj1A-12" value="свич" style="shape=parallelogram;perimeter=parallelogramPerimeter;whiteSpace=wrap;html=1;fixedSize=1;" vertex="1" parent="1">
          <mxGeometry x="40" y="80" width="60" height="20" as="geometry" />
        </mxCell>
        <mxCell id="NDiatKdzCydLOwNRCj1A-14" value="вагончик" style="text;html=1;align=center;verticalAlign=middle;whiteSpace=wrap;rounded=0;" vertex="1" parent="1">
          <mxGeometry x="60" y="10" width="60" height="30" as="geometry" />
        </mxCell>
        <mxCell id="NDiatKdzCydLOwNRCj1A-15" value="&lt;font style=&quot;font-size: 31px;&quot;&gt;цех&lt;/font&gt;" style="text;html=1;align=center;verticalAlign=middle;whiteSpace=wrap;rounded=0;" vertex="1" parent="1">
          <mxGeometry x="770" y="230" width="146" height="50" as="geometry" />
        </mxCell>
        <mxCell id="NDiatKdzCydLOwNRCj1A-21" value="комп" style="text;html=1;align=center;verticalAlign=middle;whiteSpace=wrap;rounded=0;" vertex="1" parent="1">
          <mxGeometry x="390" y="340" width="60" height="30" as="geometry" />
        </mxCell>
        <mxCell id="NDiatKdzCydLOwNRCj1A-22" value="2 компа" style="text;html=1;align=center;verticalAlign=middle;whiteSpace=wrap;rounded=0;" vertex="1" parent="1">
          <mxGeometry x="100" y="40" width="60" height="30" as="geometry" />
        </mxCell>
        <mxCell id="NDiatKdzCydLOwNRCj1A-23" value="точка дост" style="shape=hexagon;perimeter=hexagonPerimeter2;whiteSpace=wrap;html=1;fixedSize=1;" vertex="1" parent="1">
          <mxGeometry x="220" y="100" width="60" height="30" as="geometry" />
        </mxCell>
        <mxCell id="NDiatKdzCydLOwNRCj1A-24" value="точка дост" style="shape=hexagon;perimeter=hexagonPerimeter2;whiteSpace=wrap;html=1;fixedSize=1;" vertex="1" parent="1">
          <mxGeometry x="1211" y="100" width="60" height="30" as="geometry" />
        </mxCell>
        <mxCell id="NDiatKdzCydLOwNRCj1A-33" style="edgeStyle=orthogonalEdgeStyle;rounded=0;orthogonalLoop=1;jettySize=auto;html=1;" edge="1" parent="1" source="NDiatKdzCydLOwNRCj1A-25" target="NDiatKdzCydLOwNRCj1A-24">
          <mxGeometry relative="1" as="geometry" />
        </mxCell>
        <mxCell id="NDiatKdzCydLOwNRCj1A-25" value="роутер" style="shape=hexagon;perimeter=hexagonPerimeter2;whiteSpace=wrap;html=1;fixedSize=1;" vertex="1" parent="1">
          <mxGeometry x="1211" y="145" width="60" height="30" as="geometry" />
        </mxCell>
        <mxCell id="NDiatKdzCydLOwNRCj1A-28" value="" style="endArrow=classic;html=1;rounded=0;entryX=0;entryY=0.5;entryDx=0;entryDy=0;" edge="1" parent="1" target="NDiatKdzCydLOwNRCj1A-23">
          <mxGeometry relative="1" as="geometry">
            <mxPoint x="70" y="100" as="sourcePoint" />
            <mxPoint x="170" y="100" as="targetPoint" />
          </mxGeometry>
        </mxCell>
        <mxCell id="NDiatKdzCydLOwNRCj1A-29" value="Label" style="edgeLabel;resizable=0;html=1;;align=center;verticalAlign=middle;" connectable="0" vertex="1" parent="NDiatKdzCydLOwNRCj1A-28">
          <mxGeometry relative="1" as="geometry" />
        </mxCell>
        <mxCell id="NDiatKdzCydLOwNRCj1A-35" value="точка дост" style="shape=hexagon;perimeter=hexagonPerimeter2;whiteSpace=wrap;html=1;fixedSize=1;" vertex="1" parent="1">
          <mxGeometry x="1040" y="130" width="60" height="30" as="geometry" />
        </mxCell>
        <mxCell id="NDiatKdzCydLOwNRCj1A-39" style="edgeStyle=orthogonalEdgeStyle;rounded=0;orthogonalLoop=1;jettySize=auto;html=1;entryX=0;entryY=0.25;entryDx=0;entryDy=0;" edge="1" parent="1" source="NDiatKdzCydLOwNRCj1A-37" target="NDiatKdzCydLOwNRCj1A-35">
          <mxGeometry relative="1" as="geometry" />
        </mxCell>
        <mxCell id="NDiatKdzCydLOwNRCj1A-78" style="edgeStyle=orthogonalEdgeStyle;rounded=0;orthogonalLoop=1;jettySize=auto;html=1;entryX=0;entryY=0.5;entryDx=0;entryDy=0;" edge="1" parent="1" source="NDiatKdzCydLOwNRCj1A-37" target="NDiatKdzCydLOwNRCj1A-25">
          <mxGeometry relative="1" as="geometry" />
        </mxCell>
        <mxCell id="NDiatKdzCydLOwNRCj1A-37" value="свич" style="shape=parallelogram;perimeter=parallelogramPerimeter;whiteSpace=wrap;html=1;fixedSize=1;" vertex="1" parent="1">
          <mxGeometry x="570" y="150" width="60" height="20" as="geometry" />
        </mxCell>
        <mxCell id="NDiatKdzCydLOwNRCj1A-53" style="edgeStyle=orthogonalEdgeStyle;rounded=0;orthogonalLoop=1;jettySize=auto;html=1;entryX=0.5;entryY=1;entryDx=0;entryDy=0;" edge="1" parent="1" source="NDiatKdzCydLOwNRCj1A-41" target="NDiatKdzCydLOwNRCj1A-52">
          <mxGeometry relative="1" as="geometry">
            <Array as="points">
              <mxPoint x="350" y="400" />
              <mxPoint x="650" y="400" />
              <mxPoint x="650" y="145" />
              <mxPoint x="690" y="145" />
            </Array>
          </mxGeometry>
        </mxCell>
        <mxCell id="NDiatKdzCydLOwNRCj1A-59" style="edgeStyle=orthogonalEdgeStyle;rounded=0;orthogonalLoop=1;jettySize=auto;html=1;entryX=0.5;entryY=0;entryDx=0;entryDy=0;" edge="1" parent="1" source="NDiatKdzCydLOwNRCj1A-41" target="NDiatKdzCydLOwNRCj1A-58">
          <mxGeometry relative="1" as="geometry">
            <Array as="points">
              <mxPoint x="320" y="680" />
            </Array>
          </mxGeometry>
        </mxCell>
        <mxCell id="NDiatKdzCydLOwNRCj1A-75" style="edgeStyle=orthogonalEdgeStyle;rounded=0;orthogonalLoop=1;jettySize=auto;html=1;entryX=0;entryY=0.5;entryDx=0;entryDy=0;" edge="1" parent="1" source="NDiatKdzCydLOwNRCj1A-41" target="NDiatKdzCydLOwNRCj1A-46">
          <mxGeometry relative="1" as="geometry" />
        </mxCell>
        <mxCell id="NDiatKdzCydLOwNRCj1A-77" style="edgeStyle=orthogonalEdgeStyle;rounded=0;orthogonalLoop=1;jettySize=auto;html=1;entryX=1;entryY=0.5;entryDx=0;entryDy=0;" edge="1" parent="1" source="NDiatKdzCydLOwNRCj1A-41" target="NDiatKdzCydLOwNRCj1A-66">
          <mxGeometry relative="1" as="geometry">
            <Array as="points">
              <mxPoint x="330" y="1200" />
            </Array>
          </mxGeometry>
        </mxCell>
        <mxCell id="NDiatKdzCydLOwNRCj1A-41" value="&amp;nbsp;центр свич" style="shape=parallelogram;perimeter=parallelogramPerimeter;whiteSpace=wrap;html=1;fixedSize=1;" vertex="1" parent="1">
          <mxGeometry x="320" y="460" width="60" height="30" as="geometry" />
        </mxCell>
        <mxCell id="NDiatKdzCydLOwNRCj1A-43" value="2 компа каб Лены&amp;nbsp;" style="text;html=1;align=center;verticalAlign=middle;whiteSpace=wrap;rounded=0;" vertex="1" parent="1">
          <mxGeometry x="414" y="530" width="60" height="30" as="geometry" />
        </mxCell>
        <mxCell id="NDiatKdzCydLOwNRCj1A-44" value="3 компа каб Бухгалтерия" style="text;html=1;align=center;verticalAlign=middle;whiteSpace=wrap;rounded=0;" vertex="1" parent="1">
          <mxGeometry x="640" y="550" width="60" height="30" as="geometry" />
        </mxCell>
        <mxCell id="NDiatKdzCydLOwNRCj1A-51" style="edgeStyle=orthogonalEdgeStyle;rounded=0;orthogonalLoop=1;jettySize=auto;html=1;entryX=0.5;entryY=1;entryDx=0;entryDy=0;" edge="1" parent="1" source="NDiatKdzCydLOwNRCj1A-46" target="NDiatKdzCydLOwNRCj1A-47">
          <mxGeometry relative="1" as="geometry">
            <Array as="points">
              <mxPoint x="720" y="440" />
              <mxPoint x="180" y="440" />
            </Array>
          </mxGeometry>
        </mxCell>
        <mxCell id="NDiatKdzCydLOwNRCj1A-46" value="оптика" style="shape=parallelogram;perimeter=parallelogramPerimeter;whiteSpace=wrap;html=1;fixedSize=1;" vertex="1" parent="1">
          <mxGeometry x="690" y="450" width="60" height="20" as="geometry" />
        </mxCell>
        <mxCell id="NDiatKdzCydLOwNRCj1A-48" style="edgeStyle=orthogonalEdgeStyle;rounded=0;orthogonalLoop=1;jettySize=auto;html=1;entryX=0.5;entryY=1;entryDx=0;entryDy=0;" edge="1" parent="1" source="NDiatKdzCydLOwNRCj1A-47" target="NDiatKdzCydLOwNRCj1A-10">
          <mxGeometry relative="1" as="geometry" />
        </mxCell>
        <mxCell id="NDiatKdzCydLOwNRCj1A-47" value="оптика" style="shape=parallelogram;perimeter=parallelogramPerimeter;whiteSpace=wrap;html=1;fixedSize=1;" vertex="1" parent="1">
          <mxGeometry x="150" y="360" width="60" height="20" as="geometry" />
        </mxCell>
        <mxCell id="NDiatKdzCydLOwNRCj1A-52" value="свич видео" style="shape=parallelogram;perimeter=parallelogramPerimeter;whiteSpace=wrap;html=1;fixedSize=1;" vertex="1" parent="1">
          <mxGeometry x="660" y="140" width="60" height="20" as="geometry" />
        </mxCell>
        <mxCell id="NDiatKdzCydLOwNRCj1A-56" value="" style="rounded=0;whiteSpace=wrap;html=1;" vertex="1" parent="1">
          <mxGeometry x="80" y="450" width="230" height="180" as="geometry" />
        </mxCell>
        <mxCell id="NDiatKdzCydLOwNRCj1A-54" value="3 компа каб нач произ-ва" style="text;html=1;align=center;verticalAlign=middle;whiteSpace=wrap;rounded=0;" vertex="1" parent="1">
          <mxGeometry x="170" y="530" width="60" height="30" as="geometry" />
        </mxCell>
        <mxCell id="NDiatKdzCydLOwNRCj1A-57" value="итр 4 компа" style="rounded=0;whiteSpace=wrap;html=1;" vertex="1" parent="1">
          <mxGeometry x="80" y="630" width="230" height="120" as="geometry" />
        </mxCell>
        <mxCell id="NDiatKdzCydLOwNRCj1A-58" value="свич" style="shape=parallelogram;perimeter=parallelogramPerimeter;whiteSpace=wrap;html=1;fixedSize=1;" vertex="1" parent="1">
          <mxGeometry x="250" y="680" width="60" height="20" as="geometry" />
        </mxCell>
        <mxCell id="NDiatKdzCydLOwNRCj1A-60" value="отдел сопровожд. 6 компов" style="rounded=0;whiteSpace=wrap;html=1;" vertex="1" parent="1">
          <mxGeometry x="80" y="750" width="230" height="140" as="geometry" />
        </mxCell>
        <mxCell id="NDiatKdzCydLOwNRCj1A-61" value="свич" style="shape=parallelogram;perimeter=parallelogramPerimeter;whiteSpace=wrap;html=1;fixedSize=1;" vertex="1" parent="1">
          <mxGeometry x="250" y="770" width="60" height="20" as="geometry" />
        </mxCell>
        <mxCell id="NDiatKdzCydLOwNRCj1A-64" style="edgeStyle=orthogonalEdgeStyle;rounded=0;orthogonalLoop=1;jettySize=auto;html=1;entryX=1;entryY=1;entryDx=0;entryDy=0;" edge="1" parent="1" source="NDiatKdzCydLOwNRCj1A-41" target="NDiatKdzCydLOwNRCj1A-61">
          <mxGeometry relative="1" as="geometry">
            <Array as="points">
              <mxPoint x="320" y="785" />
            </Array>
          </mxGeometry>
        </mxCell>
        <mxCell id="NDiatKdzCydLOwNRCj1A-65" value="вход" style="rounded=0;whiteSpace=wrap;html=1;" vertex="1" parent="1">
          <mxGeometry x="80" y="890" width="230" height="120" as="geometry" />
        </mxCell>
        <mxCell id="NDiatKdzCydLOwNRCj1A-66" value="отдел кадров 1 комп" style="rounded=0;whiteSpace=wrap;html=1;" vertex="1" parent="1">
          <mxGeometry x="80" y="1150" width="230" height="100" as="geometry" />
        </mxCell>
        <mxCell id="NDiatKdzCydLOwNRCj1A-67" value="" style="rounded=0;whiteSpace=wrap;html=1;" vertex="1" parent="1">
          <mxGeometry x="550" y="720" width="220" height="110" as="geometry" />
        </mxCell>
        <mxCell id="NDiatKdzCydLOwNRCj1A-68" value="сервер" style="text;html=1;align=center;verticalAlign=middle;whiteSpace=wrap;rounded=0;" vertex="1" parent="1">
          <mxGeometry x="690" y="720" width="60" height="30" as="geometry" />
        </mxCell>
        <mxCell id="NDiatKdzCydLOwNRCj1A-69" style="edgeStyle=orthogonalEdgeStyle;rounded=0;orthogonalLoop=1;jettySize=auto;html=1;entryX=0;entryY=0.5;entryDx=0;entryDy=0;" edge="1" parent="1" source="NDiatKdzCydLOwNRCj1A-41" target="NDiatKdzCydLOwNRCj1A-68">
          <mxGeometry relative="1" as="geometry">
            <Array as="points">
              <mxPoint x="350" y="600" />
              <mxPoint x="535" y="600" />
              <mxPoint x="535" y="735" />
            </Array>
          </mxGeometry>
        </mxCell>
        <mxCell id="NDiatKdzCydLOwNRCj1A-70" value="цех2 2 компа 2 станка лазер" style="rounded=0;whiteSpace=wrap;html=1;" vertex="1" parent="1">
          <mxGeometry x="820" y="450" width="860" height="380" as="geometry" />
        </mxCell>
        <mxCell id="NDiatKdzCydLOwNRCj1A-76" style="edgeStyle=orthogonalEdgeStyle;rounded=0;orthogonalLoop=1;jettySize=auto;html=1;entryX=0;entryY=0.5;entryDx=0;entryDy=0;" edge="1" parent="1" source="NDiatKdzCydLOwNRCj1A-71" target="NDiatKdzCydLOwNRCj1A-72">
          <mxGeometry relative="1" as="geometry" />
        </mxCell>
        <mxCell id="NDiatKdzCydLOwNRCj1A-71" value="роутер" style="shape=hexagon;perimeter=hexagonPerimeter2;whiteSpace=wrap;html=1;fixedSize=1;" vertex="1" parent="1">
          <mxGeometry x="1180" y="460" width="50" height="40" as="geometry" />
        </mxCell>
        <mxCell id="NDiatKdzCydLOwNRCj1A-72" value="роутер" style="shape=hexagon;perimeter=hexagonPerimeter2;whiteSpace=wrap;html=1;fixedSize=1;" vertex="1" parent="1">
          <mxGeometry x="1540" y="460" width="50" height="40" as="geometry" />
        </mxCell>
        <mxCell id="NDiatKdzCydLOwNRCj1A-42" value="видеосервер" style="text;html=1;align=center;verticalAlign=middle;whiteSpace=wrap;rounded=0;" vertex="1" parent="1">
          <mxGeometry x="390" y="450" width="60" height="30" as="geometry" />
        </mxCell>
        <mxCell id="NDiatKdzCydLOwNRCj1A-74" style="edgeStyle=orthogonalEdgeStyle;rounded=0;orthogonalLoop=1;jettySize=auto;html=1;entryX=0;entryY=0.5;entryDx=0;entryDy=0;" edge="1" parent="1" source="NDiatKdzCydLOwNRCj1A-41" target="NDiatKdzCydLOwNRCj1A-71">
          <mxGeometry relative="1" as="geometry">
            <Array as="points">
              <mxPoint x="350" y="440" />
              <mxPoint x="1205" y="440" />
              <mxPoint x="1205" y="480" />
            </Array>
          </mxGeometry>
        </mxCell>
        <mxCell id="NDiatKdzCydLOwNRCj1A-81" style="edgeStyle=orthogonalEdgeStyle;rounded=0;orthogonalLoop=1;jettySize=auto;html=1;" edge="1" parent="1" source="NDiatKdzCydLOwNRCj1A-79" target="NDiatKdzCydLOwNRCj1A-41">
          <mxGeometry relative="1" as="geometry" />
        </mxCell>
        <mxCell id="NDiatKdzCydLOwNRCj1A-83" style="edgeStyle=orthogonalEdgeStyle;rounded=0;orthogonalLoop=1;jettySize=auto;html=1;entryX=0.5;entryY=1;entryDx=0;entryDy=0;" edge="1" parent="1" source="NDiatKdzCydLOwNRCj1A-79" target="NDiatKdzCydLOwNRCj1A-82">
          <mxGeometry relative="1" as="geometry" />
        </mxCell>
        <mxCell id="NDiatKdzCydLOwNRCj1A-79" value="на втором этаже директор 1 комп. серверная провайдера с ннашим роутером" style="text;html=1;align=center;verticalAlign=middle;whiteSpace=wrap;rounded=0;" vertex="1" parent="1">
          <mxGeometry x="350" y="870" width="60" height="30" as="geometry" />
        </mxCell>
        <mxCell id="NDiatKdzCydLOwNRCj1A-84" style="edgeStyle=orthogonalEdgeStyle;rounded=0;orthogonalLoop=1;jettySize=auto;html=1;exitX=0;exitY=0.5;exitDx=0;exitDy=0;" edge="1" parent="1" source="NDiatKdzCydLOwNRCj1A-82">
          <mxGeometry relative="1" as="geometry">
            <mxPoint x="350" y="490" as="targetPoint" />
          </mxGeometry>
        </mxCell>
        <mxCell id="NDiatKdzCydLOwNRCj1A-82" value="роутер" style="shape=hexagon;perimeter=hexagonPerimeter2;whiteSpace=wrap;html=1;fixedSize=1;" vertex="1" parent="1">
          <mxGeometry x="380" y="480" width="50" height="40" as="geometry" />
        </mxCell>
        <mxCell id="NDiatKdzCydLOwNRCj1A-85" value="свич видео" style="shape=parallelogram;perimeter=parallelogramPerimeter;whiteSpace=wrap;html=1;fixedSize=1;" vertex="1" parent="1">
          <mxGeometry x="1110" y="465" width="60" height="20" as="geometry" />
        </mxCell>
        <mxCell id="NDiatKdzCydLOwNRCj1A-86" value="Text" style="text;html=1;align=center;verticalAlign=middle;whiteSpace=wrap;rounded=0;" vertex="1" parent="1">
          <mxGeometry x="770" y="810" width="60" height="30" as="geometry" />
        </mxCell>
        <mxCell id="NDiatKdzCydLOwNRCj1A-87" value="Всего компов красноярск: 2+1+4+3+2+3+4+6+1+1=27 + 2 сервера" style="text;html=1;align=center;verticalAlign=middle;resizable=0;points=[];autosize=1;strokeColor=none;fillColor=none;" vertex="1" parent="1">
          <mxGeometry x="525" y="988" width="390" height="30" as="geometry" />
        </mxCell>
        <mxCell id="NDiatKdzCydLOwNRCj1A-88" value="В томмоте 1 ноутбук" style="text;html=1;align=center;verticalAlign=middle;whiteSpace=wrap;rounded=0;" vertex="1" parent="1">
          <mxGeometry x="520" y="1030" width="160" height="30" as="geometry" />
        </mxCell>
      </root>
    </mxGraphModel>
  </diagram>
</mxfile>
